<?xml version="1.0" encoding="iso-8859-1"?>
<!-- Generator: Adobe Illustrator 19.0.0, SVG Export Plug-In . SVG Version: 6.00 Build 0)  -->
<svg xmlns="http://www.w3.org/2000/svg" xmlns:xlink="http://www.w3.org/1999/xlink" version="1.1" id="Capa_1" x="0px" y="0px" viewBox="0 0 512 512" style="enable-background:new 0 0 512 512;" xml:space="preserve" width="512px" height="512px">
<g>
	<g>
		<path d="M256,0C114.848,0,0,114.848,0,256s114.848,256,256,256s256-114.848,256-256S397.152,0,256,0z M256,480    C132.48,480,32,379.52,32,256S132.48,32,256,32c56,0,107.136,20.8,146.464,54.912l-45.76,45.76C328.416,109.344,293.504,96,256,96    c-88.224,0-160,71.776-160,160s71.776,160,160,160c37.504,0,72.416-13.344,100.704-36.672l45.76,45.76    C363.136,459.2,312,480,256,480z M278.624,233.408C284.416,239.2,288,247.2,288,256s-3.584,16.8-9.376,22.624    C272.8,284.416,264.8,288,256,288c-17.632,0-32-14.368-32-32c0-17.632,14.368-32,32-32c8.8,0,16.8,3.584,22.592,9.376    c0,0,0,0,0,0.032C278.592,233.44,278.592,233.408,278.624,233.408z M256,192c-35.296,0-64,28.704-64,64s28.704,64,64,64    c11.84,0,22.784-3.456,32.32-9.056l45.792,45.792C311.936,374.08,284.928,384,256,384c-70.592,0-128-57.408-128-128    s57.408-128,128-128c28.928,0,55.936,9.92,78.08,27.296l-45.76,45.76C278.784,195.456,267.84,192,256,192z M425.088,402.464    L310.944,288.32c5.6-9.536,9.056-20.48,9.056-32.32c0-11.84-3.456-22.784-9.056-32.32l114.144-114.144    C459.2,148.864,480,200,480,256S459.2,363.136,425.088,402.464z" fill="#FFFFFF"/>
	</g>
</g>
<g>
</g>
<g>
</g>
<g>
</g>
<g>
</g>
<g>
</g>
<g>
</g>
<g>
</g>
<g>
</g>
<g>
</g>
<g>
</g>
<g>
</g>
<g>
</g>
<g>
</g>
<g>
</g>
<g>
</g>
</svg>
